<mxfile host="app.diagrams.net" agent="Mozilla/5.0 (Windows NT 10.0; Win64; x64) AppleWebKit/537.36 (KHTML, like Gecko) Chrome/137.0.0.0 Safari/537.36 Edg/137.0.0.0" version="27.1.6">
  <diagram name="Page-1" id="vsDgdd3fEjQNysXHu2It">
    <mxGraphModel dx="2375" dy="898" grid="1" gridSize="10" guides="1" tooltips="1" connect="1" arrows="1" fold="1" page="1" pageScale="1" pageWidth="827" pageHeight="1169" math="0" shadow="0">
      <root>
        <mxCell id="0" />
        <mxCell id="1" parent="0" />
        <mxCell id="lOSNuE5mv28vJMR1kHwe-74" value="Deploy artifacts" style="rounded=0;whiteSpace=wrap;html=1;fillColor=none;dashed=1;verticalAlign=top;fontSize=21;fontStyle=1" parent="1" vertex="1">
          <mxGeometry x="1880" y="320" width="680" height="960" as="geometry" />
        </mxCell>
        <mxCell id="lOSNuE5mv28vJMR1kHwe-85" value="Container images" style="rounded=0;whiteSpace=wrap;html=1;fillColor=none;dashed=1;verticalAlign=top;fontSize=19;" parent="1" vertex="1">
          <mxGeometry x="2200" y="880" width="320" height="330" as="geometry" />
        </mxCell>
        <mxCell id="lOSNuE5mv28vJMR1kHwe-88" value="Website configuration" style="rounded=0;whiteSpace=wrap;html=1;fillColor=none;dashed=1;verticalAlign=top;fontSize=19;" parent="1" vertex="1">
          <mxGeometry x="2891" y="398" width="360" height="840" as="geometry" />
        </mxCell>
        <mxCell id="lOSNuE5mv28vJMR1kHwe-33" value="AKS Platform" style="rounded=0;whiteSpace=wrap;html=1;fillColor=none;fontSize=22;opacity=30;verticalAlign=top;fontStyle=1;strokeColor=#1A1A1A;dashed=1;strokeWidth=4;" parent="1" vertex="1">
          <mxGeometry x="320" y="320" width="1240" height="960" as="geometry" />
        </mxCell>
        <mxCell id="nofUytTRKHborZHY42P_-4" value="External Services" style="rounded=0;whiteSpace=wrap;html=1;fillColor=none;dashed=1;verticalAlign=top;fontSize=19;" parent="1" vertex="1">
          <mxGeometry x="1120" y="10" width="440" height="270" as="geometry" />
        </mxCell>
        <mxCell id="t7KPd59zG3dRuJUCGF13-18" value="Website deployments" style="rounded=0;whiteSpace=wrap;html=1;fillColor=none;dashed=1;verticalAlign=top;fontSize=19;" parent="1" vertex="1">
          <mxGeometry x="600" y="380" width="680" height="860" as="geometry" />
        </mxCell>
        <mxCell id="lOSNuE5mv28vJMR1kHwe-45" value="Configuration repository" style="rounded=0;whiteSpace=wrap;html=1;fillColor=none;dashed=1;verticalAlign=top;fontSize=21;fontStyle=1" parent="1" vertex="1">
          <mxGeometry x="2840" y="320" width="828" height="960" as="geometry" />
        </mxCell>
        <mxCell id="lOSNuE5mv28vJMR1kHwe-89" value="Website code" style="rounded=0;whiteSpace=wrap;html=1;fillColor=none;dashed=1;verticalAlign=top;fontSize=19;" parent="1" vertex="1">
          <mxGeometry x="3270" y="398" width="380" height="450" as="geometry" />
        </mxCell>
        <mxCell id="lOSNuE5mv28vJMR1kHwe-82" value="Kubernetes objects config" style="rounded=0;whiteSpace=wrap;html=1;fillColor=none;dashed=1;verticalAlign=top;fontSize=19;" parent="1" vertex="1">
          <mxGeometry x="1920" y="401" width="600" height="449" as="geometry" />
        </mxCell>
        <mxCell id="lOSNuE5mv28vJMR1kHwe-43" value="Shared website services" style="rounded=0;whiteSpace=wrap;html=1;fillColor=none;dashed=1;verticalAlign=top;fontSize=19;" parent="1" vertex="1">
          <mxGeometry x="1320" y="380" width="200" height="860" as="geometry" />
        </mxCell>
        <mxCell id="lOSNuE5mv28vJMR1kHwe-68" style="edgeStyle=orthogonalEdgeStyle;rounded=0;orthogonalLoop=1;jettySize=auto;html=1;entryX=0;entryY=0.5;entryDx=0;entryDy=0;fontSize=19;" parent="1" source="lOSNuE5mv28vJMR1kHwe-66" target="t7KPd59zG3dRuJUCGF13-18" edge="1">
          <mxGeometry relative="1" as="geometry" />
        </mxCell>
        <mxCell id="lOSNuE5mv28vJMR1kHwe-66" value="Kubernetes System services" style="rounded=0;whiteSpace=wrap;html=1;fillColor=none;dashed=1;verticalAlign=top;fontSize=19;" parent="1" vertex="1">
          <mxGeometry x="380" y="380" width="180" height="860" as="geometry" />
        </mxCell>
        <mxCell id="lOSNuE5mv28vJMR1kHwe-49" value="website 4 configuration" style="rounded=0;whiteSpace=wrap;html=1;fillColor=#FFCCE6;fontSize=19;" parent="1" vertex="1">
          <mxGeometry x="3041" y="449" width="80" height="75" as="geometry" />
        </mxCell>
        <mxCell id="lOSNuE5mv28vJMR1kHwe-48" value="website 3 configuration" style="rounded=0;whiteSpace=wrap;html=1;fillColor=#FFCCE6;fontSize=19;" parent="1" vertex="1">
          <mxGeometry x="3021" y="483" width="80" height="75" as="geometry" />
        </mxCell>
        <mxCell id="lOSNuE5mv28vJMR1kHwe-67" style="edgeStyle=orthogonalEdgeStyle;rounded=0;orthogonalLoop=1;jettySize=auto;html=1;" parent="1" source="t7KPd59zG3dRuJUCGF13-2" target="lOSNuE5mv28vJMR1kHwe-66" edge="1">
          <mxGeometry relative="1" as="geometry" />
        </mxCell>
        <mxCell id="t7KPd59zG3dRuJUCGF13-2" value="Domain services" style="rounded=0;whiteSpace=wrap;html=1;fillColor=#99CCFF;fontSize=19;" parent="1" vertex="1">
          <mxGeometry x="103" y="746.5" width="150" height="130" as="geometry" />
        </mxCell>
        <mxCell id="t7KPd59zG3dRuJUCGF13-3" value="website app - experience1" style="rounded=0;whiteSpace=wrap;html=1;fillColor=#FFCCE6;fontSize=19;" parent="1" vertex="1">
          <mxGeometry x="3320" y="568" width="120" height="120" as="geometry" />
        </mxCell>
        <mxCell id="t7KPd59zG3dRuJUCGF13-7" value="Kubernetes web deployment 1&lt;div&gt;(experience1)&amp;nbsp;&lt;/div&gt;" style="rounded=0;whiteSpace=wrap;html=1;fillColor=#E6D0DE;fontSize=19;" parent="1" vertex="1">
          <mxGeometry x="640" y="477.5" width="120" height="120" as="geometry" />
        </mxCell>
        <mxCell id="lOSNuE5mv28vJMR1kHwe-40" style="edgeStyle=orthogonalEdgeStyle;rounded=0;orthogonalLoop=1;jettySize=auto;html=1;entryX=1;entryY=0.5;entryDx=0;entryDy=0;fontSize=19;" parent="1" source="t7KPd59zG3dRuJUCGF13-9" target="lOSNuE5mv28vJMR1kHwe-39" edge="1">
          <mxGeometry relative="1" as="geometry" />
        </mxCell>
        <mxCell id="t7KPd59zG3dRuJUCGF13-9" value="CMS Content" style="shape=cylinder3;whiteSpace=wrap;html=1;boundedLbl=1;backgroundOutline=1;size=15;fillColor=#97D077;fontSize=19;" parent="1" vertex="1">
          <mxGeometry x="1358" y="60" width="120" height="150" as="geometry" />
        </mxCell>
        <mxCell id="lOSNuE5mv28vJMR1kHwe-42" style="edgeStyle=orthogonalEdgeStyle;rounded=0;orthogonalLoop=1;jettySize=auto;html=1;entryX=0.5;entryY=1;entryDx=0;entryDy=0;exitX=0.5;exitY=0;exitDx=0;exitDy=0;" parent="1" source="lOSNuE5mv28vJMR1kHwe-43" target="lOSNuE5mv28vJMR1kHwe-39" edge="1">
          <mxGeometry relative="1" as="geometry">
            <Array as="points">
              <mxPoint x="1420" y="300" />
              <mxPoint x="1258" y="300" />
            </Array>
          </mxGeometry>
        </mxCell>
        <mxCell id="lOSNuE5mv28vJMR1kHwe-44" style="edgeStyle=orthogonalEdgeStyle;rounded=0;orthogonalLoop=1;jettySize=auto;html=1;exitX=1;exitY=0.5;exitDx=0;exitDy=0;entryX=0;entryY=0.5;entryDx=0;entryDy=0;fontSize=19;" parent="1" source="t7KPd59zG3dRuJUCGF13-18" target="lOSNuE5mv28vJMR1kHwe-43" edge="1">
          <mxGeometry relative="1" as="geometry" />
        </mxCell>
        <mxCell id="lOSNuE5mv28vJMR1kHwe-1" value="website app - experience2" style="rounded=0;whiteSpace=wrap;html=1;fillColor=#CCCCFF;fontSize=19;" parent="1" vertex="1">
          <mxGeometry x="3450" y="568" width="120" height="120" as="geometry" />
        </mxCell>
        <mxCell id="lOSNuE5mv28vJMR1kHwe-2" value="website app - experience3" style="rounded=0;whiteSpace=wrap;html=1;fillColor=#CCFFCC;fontSize=19;" parent="1" vertex="1">
          <mxGeometry x="3320" y="699.5" width="120" height="120" as="geometry" />
        </mxCell>
        <mxCell id="lOSNuE5mv28vJMR1kHwe-3" value="website app - experience4" style="rounded=0;whiteSpace=wrap;html=1;fillColor=#FFE599;fontSize=19;" parent="1" vertex="1">
          <mxGeometry x="3450" y="699.5" width="120" height="120" as="geometry" />
        </mxCell>
        <mxCell id="lOSNuE5mv28vJMR1kHwe-4" value="website app - shared components" style="rounded=0;whiteSpace=wrap;html=1;fillColor=#FFFFCC;fontSize=19;" parent="1" vertex="1">
          <mxGeometry x="3320" y="441" width="120" height="115" as="geometry" />
        </mxCell>
        <mxCell id="lOSNuE5mv28vJMR1kHwe-12" value="Kubernetes web deployment 2&lt;div&gt;(experience1)&amp;nbsp;&lt;/div&gt;" style="rounded=0;whiteSpace=wrap;html=1;fillColor=#E6D0DE;fontSize=19;" parent="1" vertex="1">
          <mxGeometry x="800" y="477.5" width="120" height="120" as="geometry" />
        </mxCell>
        <mxCell id="lOSNuE5mv28vJMR1kHwe-15" value="Kubernetes web deployment 3&lt;div&gt;(experience1)&amp;nbsp;&lt;/div&gt;" style="rounded=0;whiteSpace=wrap;html=1;fillColor=#E6D0DE;fontSize=19;" parent="1" vertex="1">
          <mxGeometry x="960" y="477.5" width="120" height="120" as="geometry" />
        </mxCell>
        <mxCell id="lOSNuE5mv28vJMR1kHwe-16" value="Kubernetes web deployment 4&lt;div&gt;(experience1)&amp;nbsp;&lt;/div&gt;" style="rounded=0;whiteSpace=wrap;html=1;fillColor=#E6D0DE;fontSize=19;" parent="1" vertex="1">
          <mxGeometry x="1121" y="477.5" width="120" height="120" as="geometry" />
        </mxCell>
        <mxCell id="lOSNuE5mv28vJMR1kHwe-21" value="Kubernetes web deployment 5&lt;div&gt;(experience2)&amp;nbsp;&lt;/div&gt;" style="rounded=0;whiteSpace=wrap;html=1;fillColor=#CCCCFF;fontSize=19;" parent="1" vertex="1">
          <mxGeometry x="640" y="640" width="120" height="120" as="geometry" />
        </mxCell>
        <mxCell id="lOSNuE5mv28vJMR1kHwe-22" value="Kubernetes web deployment 6&lt;div&gt;(experience2)&amp;nbsp;&lt;/div&gt;" style="rounded=0;whiteSpace=wrap;html=1;fillColor=#CCCCFF;fontSize=19;" parent="1" vertex="1">
          <mxGeometry x="800" y="640" width="120" height="120" as="geometry" />
        </mxCell>
        <mxCell id="lOSNuE5mv28vJMR1kHwe-23" value="Kubernetes web deployment 7&lt;div&gt;(experience2)&lt;/div&gt;" style="rounded=0;whiteSpace=wrap;html=1;fillColor=#CCCCFF;fontSize=19;" parent="1" vertex="1">
          <mxGeometry x="960" y="640" width="120" height="120" as="geometry" />
        </mxCell>
        <mxCell id="lOSNuE5mv28vJMR1kHwe-24" value="Kubernetes web deployment 8&lt;div&gt;(experience2)&amp;nbsp;&lt;/div&gt;" style="rounded=0;whiteSpace=wrap;html=1;fillColor=#CCCCFF;fontSize=19;" parent="1" vertex="1">
          <mxGeometry x="1121" y="640" width="120" height="120" as="geometry" />
        </mxCell>
        <mxCell id="lOSNuE5mv28vJMR1kHwe-25" value="Kubernetes web deployment 9&lt;div&gt;(experience3)&amp;nbsp;&lt;/div&gt;" style="rounded=0;whiteSpace=wrap;html=1;fillColor=#B9E0A5;fontSize=19;" parent="1" vertex="1">
          <mxGeometry x="640" y="800" width="120" height="120" as="geometry" />
        </mxCell>
        <mxCell id="lOSNuE5mv28vJMR1kHwe-26" value="Kubernetes web deployment 10&lt;div&gt;(experience3)&amp;nbsp;&lt;/div&gt;" style="rounded=0;whiteSpace=wrap;html=1;fillColor=#B9E0A5;fontSize=19;" parent="1" vertex="1">
          <mxGeometry x="800" y="799" width="120" height="120" as="geometry" />
        </mxCell>
        <mxCell id="lOSNuE5mv28vJMR1kHwe-27" value="Kubernetes web deployment 11&lt;div&gt;(experience3)&amp;nbsp;&lt;/div&gt;" style="rounded=0;whiteSpace=wrap;html=1;fillColor=#B9E0A5;fontSize=19;" parent="1" vertex="1">
          <mxGeometry x="960" y="800" width="120" height="120" as="geometry" />
        </mxCell>
        <mxCell id="lOSNuE5mv28vJMR1kHwe-28" value="Kubernetes web deployment 12&lt;div&gt;(experience3)&amp;nbsp;&lt;/div&gt;" style="rounded=0;whiteSpace=wrap;html=1;fillColor=#B9E0A5;fontSize=19;" parent="1" vertex="1">
          <mxGeometry x="1121" y="799" width="120" height="120" as="geometry" />
        </mxCell>
        <mxCell id="lOSNuE5mv28vJMR1kHwe-29" value="Kubernetes web deployment 13&lt;div&gt;(experience4)&amp;nbsp;&lt;/div&gt;" style="rounded=0;whiteSpace=wrap;html=1;fillColor=#FFE599;fontSize=19;" parent="1" vertex="1">
          <mxGeometry x="640" y="960" width="120" height="120" as="geometry" />
        </mxCell>
        <mxCell id="lOSNuE5mv28vJMR1kHwe-30" value="Kubernetes web deployment 14&lt;div&gt;(experience4)&amp;nbsp;&lt;/div&gt;" style="rounded=0;whiteSpace=wrap;html=1;fillColor=#FFE599;fontSize=19;" parent="1" vertex="1">
          <mxGeometry x="800" y="960" width="120" height="120" as="geometry" />
        </mxCell>
        <mxCell id="lOSNuE5mv28vJMR1kHwe-31" value="Kubernetes web deployment 15&lt;div&gt;(experience4)&amp;nbsp;&lt;/div&gt;" style="rounded=0;whiteSpace=wrap;html=1;fillColor=#FFE599;fontSize=19;" parent="1" vertex="1">
          <mxGeometry x="960" y="960" width="120" height="120" as="geometry" />
        </mxCell>
        <mxCell id="lOSNuE5mv28vJMR1kHwe-32" value="Kubernetes web deployment 16&lt;div&gt;(experience4)&amp;nbsp;&lt;/div&gt;" style="rounded=0;whiteSpace=wrap;html=1;fillColor=#FFE599;fontSize=19;" parent="1" vertex="1">
          <mxGeometry x="1121" y="960" width="120" height="120" as="geometry" />
        </mxCell>
        <mxCell id="lOSNuE5mv28vJMR1kHwe-34" value="Kubernetes shared component 1" style="rounded=0;whiteSpace=wrap;html=1;fillColor=#C2FFF8;fontSize=19;" parent="1" vertex="1">
          <mxGeometry x="1358" y="477.5" width="120" height="120" as="geometry" />
        </mxCell>
        <mxCell id="lOSNuE5mv28vJMR1kHwe-35" value="Kubernetes shared component 3" style="rounded=0;whiteSpace=wrap;html=1;fillColor=#C2FFF8;fontSize=19;" parent="1" vertex="1">
          <mxGeometry x="1358" y="799" width="120" height="120" as="geometry" />
        </mxCell>
        <mxCell id="lOSNuE5mv28vJMR1kHwe-38" value="Kubernetes shared component 4" style="rounded=0;whiteSpace=wrap;html=1;fillColor=#C2FFF8;fontSize=19;" parent="1" vertex="1">
          <mxGeometry x="1358" y="960" width="120" height="120" as="geometry" />
        </mxCell>
        <mxCell id="lOSNuE5mv28vJMR1kHwe-39" value="CMS&amp;nbsp;" style="rounded=0;whiteSpace=wrap;html=1;fillColor=#FEFFF4;fontSize=19;" parent="1" vertex="1">
          <mxGeometry x="1218" y="60" width="80" height="150" as="geometry" />
        </mxCell>
        <mxCell id="lOSNuE5mv28vJMR1kHwe-41" value="Kubernetes shared component 2" style="rounded=0;whiteSpace=wrap;html=1;fillColor=#C2FFF8;fontSize=19;" parent="1" vertex="1">
          <mxGeometry x="1358" y="640" width="120" height="120" as="geometry" />
        </mxCell>
        <mxCell id="lOSNuE5mv28vJMR1kHwe-47" value="website 2 configuration" style="rounded=0;whiteSpace=wrap;html=1;fillColor=#FFCCE6;fontSize=19;" parent="1" vertex="1">
          <mxGeometry x="2991" y="518" width="80" height="75" as="geometry" />
        </mxCell>
        <mxCell id="lOSNuE5mv28vJMR1kHwe-46" value="website 1 configuration" style="rounded=0;whiteSpace=wrap;html=1;fillColor=#FFCCE6;fontSize=19;" parent="1" vertex="1">
          <mxGeometry x="2961" y="553" width="80" height="75" as="geometry" />
        </mxCell>
        <mxCell id="lOSNuE5mv28vJMR1kHwe-50" value="website 8 configuration" style="rounded=0;whiteSpace=wrap;html=1;fillColor=#CCCCFF;fontSize=19;" parent="1" vertex="1">
          <mxGeometry x="3041" y="643" width="80" height="75" as="geometry" />
        </mxCell>
        <mxCell id="lOSNuE5mv28vJMR1kHwe-51" value="website 7 configuration" style="rounded=0;whiteSpace=wrap;html=1;fillColor=#CCCCFF;fontSize=19;" parent="1" vertex="1">
          <mxGeometry x="3021" y="677" width="80" height="75" as="geometry" />
        </mxCell>
        <mxCell id="lOSNuE5mv28vJMR1kHwe-52" value="website 6 configuration" style="rounded=0;whiteSpace=wrap;html=1;fillColor=#CCCCFF;fontSize=19;" parent="1" vertex="1">
          <mxGeometry x="2991" y="712" width="80" height="75" as="geometry" />
        </mxCell>
        <mxCell id="lOSNuE5mv28vJMR1kHwe-53" value="website 5 configuration" style="rounded=0;whiteSpace=wrap;html=1;fillColor=#CCCCFF;fontSize=19;" parent="1" vertex="1">
          <mxGeometry x="2961" y="747" width="80" height="75" as="geometry" />
        </mxCell>
        <mxCell id="lOSNuE5mv28vJMR1kHwe-54" value="website 12 configuration" style="rounded=0;whiteSpace=wrap;html=1;fillColor=#CCFFCC;fontSize=19;" parent="1" vertex="1">
          <mxGeometry x="3031" y="838" width="80" height="75" as="geometry" />
        </mxCell>
        <mxCell id="lOSNuE5mv28vJMR1kHwe-55" value="website 11 configuration" style="rounded=0;whiteSpace=wrap;html=1;fillColor=#CCFFCC;fontSize=19;" parent="1" vertex="1">
          <mxGeometry x="3011" y="872" width="80" height="75" as="geometry" />
        </mxCell>
        <mxCell id="lOSNuE5mv28vJMR1kHwe-56" value="website 10 configuration" style="rounded=0;whiteSpace=wrap;html=1;fillColor=#CCFFCC;fontSize=19;" parent="1" vertex="1">
          <mxGeometry x="2981" y="907" width="80" height="75" as="geometry" />
        </mxCell>
        <mxCell id="lOSNuE5mv28vJMR1kHwe-57" value="website 9 configuration" style="rounded=0;whiteSpace=wrap;html=1;fillColor=#CCFFCC;fontSize=19;" parent="1" vertex="1">
          <mxGeometry x="2951" y="942" width="80" height="75" as="geometry" />
        </mxCell>
        <mxCell id="lOSNuE5mv28vJMR1kHwe-58" value="website 16 configuration" style="rounded=0;whiteSpace=wrap;html=1;fillColor=#FFE599;fontSize=19;" parent="1" vertex="1">
          <mxGeometry x="3031" y="1038" width="80" height="75" as="geometry" />
        </mxCell>
        <mxCell id="lOSNuE5mv28vJMR1kHwe-59" value="website 15 configuration" style="rounded=0;whiteSpace=wrap;html=1;fillColor=#FFE599;fontSize=19;" parent="1" vertex="1">
          <mxGeometry x="3011" y="1072" width="80" height="75" as="geometry" />
        </mxCell>
        <mxCell id="lOSNuE5mv28vJMR1kHwe-60" value="website 14 configuration" style="rounded=0;whiteSpace=wrap;html=1;fillColor=#FFE599;fontSize=19;" parent="1" vertex="1">
          <mxGeometry x="2981" y="1107" width="80" height="75" as="geometry" />
        </mxCell>
        <mxCell id="lOSNuE5mv28vJMR1kHwe-61" value="website 13 configuration" style="rounded=0;whiteSpace=wrap;html=1;fillColor=#FFE599;fontSize=19;" parent="1" vertex="1">
          <mxGeometry x="2951" y="1142" width="80" height="75" as="geometry" />
        </mxCell>
        <mxCell id="lOSNuE5mv28vJMR1kHwe-62" value="Kubernetes Ingress service" style="rounded=0;whiteSpace=wrap;html=1;fillColor=#9AC7BF;fontSize=19;" parent="1" vertex="1">
          <mxGeometry x="400" y="477.5" width="120" height="120" as="geometry" />
        </mxCell>
        <mxCell id="lOSNuE5mv28vJMR1kHwe-63" value="Kubernetes system component 3" style="rounded=0;whiteSpace=wrap;html=1;fillColor=#9AC7BF;fontSize=19;" parent="1" vertex="1">
          <mxGeometry x="400" y="799" width="120" height="120" as="geometry" />
        </mxCell>
        <mxCell id="lOSNuE5mv28vJMR1kHwe-64" value="Kubernetes system component 4" style="rounded=0;whiteSpace=wrap;html=1;fillColor=#9AC7BF;fontSize=19;" parent="1" vertex="1">
          <mxGeometry x="400" y="960" width="120" height="120" as="geometry" />
        </mxCell>
        <mxCell id="lOSNuE5mv28vJMR1kHwe-65" value="Kubernetes certificate service" style="rounded=0;whiteSpace=wrap;html=1;fillColor=#9AC7BF;fontSize=19;" parent="1" vertex="1">
          <mxGeometry x="400" y="640" width="120" height="120" as="geometry" />
        </mxCell>
        <mxCell id="lOSNuE5mv28vJMR1kHwe-69" value="" style="ellipse;whiteSpace=wrap;html=1;fontSize=19;" parent="1" vertex="1">
          <mxGeometry x="-280" y="749" width="40" height="40" as="geometry" />
        </mxCell>
        <mxCell id="lOSNuE5mv28vJMR1kHwe-70" value="" style="triangle;whiteSpace=wrap;html=1;rotation=-90;fontSize=19;" parent="1" vertex="1">
          <mxGeometry x="-290" y="799" width="60" height="40" as="geometry" />
        </mxCell>
        <mxCell id="lOSNuE5mv28vJMR1kHwe-72" style="edgeStyle=orthogonalEdgeStyle;rounded=0;orthogonalLoop=1;jettySize=auto;html=1;entryX=0;entryY=0.5;entryDx=0;entryDy=0;fontSize=19;" parent="1" source="lOSNuE5mv28vJMR1kHwe-71" target="t7KPd59zG3dRuJUCGF13-2" edge="1">
          <mxGeometry relative="1" as="geometry" />
        </mxCell>
        <mxCell id="lOSNuE5mv28vJMR1kHwe-71" value="Customer device agent e.g. browser" style="rounded=0;whiteSpace=wrap;html=1;fillColor=#d5e8d4;strokeColor=#82b366;fontSize=19;" parent="1" vertex="1">
          <mxGeometry x="-207" y="761.5" width="125" height="100" as="geometry" />
        </mxCell>
        <UserObject label="&lt;span&gt;&lt;span style=&quot;margin-right: 0px; margin-left: 0px;&quot;&gt;&lt;span style=&quot;font-weight: 600; font-style: normal;&quot;&gt;site1.acme-brands.com,&lt;/span&gt;&lt;/span&gt;&lt;/span&gt;&lt;div&gt;&lt;span&gt;&lt;span style=&quot;margin-right: 0px; margin-left: 0px;&quot;&gt;&lt;span style=&quot;font-weight: 600; font-style: normal;&quot;&gt;site2.acme-brand.com,&lt;/span&gt;&lt;/span&gt;&lt;/span&gt;&lt;/div&gt;&lt;div&gt;&lt;span&gt;&lt;span style=&quot;margin-right: 0px; margin-left: 0px;&quot;&gt;&lt;span style=&quot;font-weight: 600; font-style: normal;&quot;&gt;site3.acme-brands.com,&lt;/span&gt;&lt;/span&gt;&lt;/span&gt;&lt;/div&gt;&lt;div&gt;&lt;span style=&quot;margin-right: 0px; margin-left: 0px;&quot;&gt;&lt;span style=&quot;font-weight: 600;&quot;&gt;www variants also&lt;/span&gt;&lt;/span&gt;&lt;/div&gt;&lt;div&gt;&lt;span style=&quot;margin-right: 0px; margin-left: 0px;&quot;&gt;&lt;span style=&quot;font-weight: 600;&quot;&gt;&lt;br&gt;&lt;/span&gt;&lt;/span&gt;&lt;/div&gt;&lt;div&gt;&lt;span&gt;&lt;span style=&quot;margin-right: 0px; margin-left: 0px;&quot;&gt;&lt;span style=&quot;font-weight: 600; font-style: normal;&quot;&gt;&lt;br&gt;&lt;/span&gt;&lt;/span&gt;&lt;/span&gt;&lt;/div&gt;" link="&lt;span&gt;&lt;span style=&quot;margin-right: 0px; margin-left: 0px;&quot;&gt;&lt;span style=&quot;font-weight: 600; font-style: normal;&quot;&gt;acme-brands.com &lt;/span&gt;&lt;/span&gt;&lt;/span&gt;" id="lOSNuE5mv28vJMR1kHwe-73">
          <mxCell style="text;whiteSpace=wrap;html=1;fontSize=19;" parent="1" vertex="1">
            <mxGeometry x="-57" y="821.5" width="200" height="40" as="geometry" />
          </mxCell>
        </UserObject>
        <mxCell id="lOSNuE5mv28vJMR1kHwe-75" value="Deployment" style="rounded=0;whiteSpace=wrap;html=1;fillColor=#D5E8D4;fontSize=19;" parent="1" vertex="1">
          <mxGeometry x="1995" y="437.5" width="120" height="120" as="geometry" />
        </mxCell>
        <mxCell id="lOSNuE5mv28vJMR1kHwe-76" value="Docker image - website&amp;nbsp; experience3" style="rounded=0;whiteSpace=wrap;html=1;fillColor=#CCFFCC;fontSize=19;" parent="1" vertex="1">
          <mxGeometry x="2220" y="1059" width="120" height="120" as="geometry" />
        </mxCell>
        <mxCell id="lOSNuE5mv28vJMR1kHwe-78" value="Docker image - website experience2" style="rounded=0;whiteSpace=wrap;html=1;fillColor=#CCCCFF;fontSize=19;" parent="1" vertex="1">
          <mxGeometry x="2360" y="919" width="120" height="120" as="geometry" />
        </mxCell>
        <mxCell id="lOSNuE5mv28vJMR1kHwe-79" value="Docker image website experience1" style="rounded=0;whiteSpace=wrap;html=1;fillColor=#FFCCE6;fontSize=19;" parent="1" vertex="1">
          <mxGeometry x="2220" y="919" width="120" height="120" as="geometry" />
        </mxCell>
        <mxCell id="lOSNuE5mv28vJMR1kHwe-80" value="Docker image - website experience4" style="rounded=0;whiteSpace=wrap;html=1;fillColor=#FFE599;fontSize=19;" parent="1" vertex="1">
          <mxGeometry x="2360" y="1059" width="120" height="120" as="geometry" />
        </mxCell>
        <mxCell id="lOSNuE5mv28vJMR1kHwe-81" value="Secrets - akv2k8s" style="rounded=0;whiteSpace=wrap;html=1;fillColor=#D5E8D4;fontSize=19;" parent="1" vertex="1">
          <mxGeometry x="2135" y="437.5" width="120" height="120" as="geometry" />
        </mxCell>
        <mxCell id="lOSNuE5mv28vJMR1kHwe-84" value="KEDA" style="rounded=0;whiteSpace=wrap;html=1;fillColor=#D5E8D4;fontSize=19;" parent="1" vertex="1">
          <mxGeometry x="1995" y="572.5" width="120" height="120" as="geometry" />
        </mxCell>
        <mxCell id="lOSNuE5mv28vJMR1kHwe-86" value="Blob CSi" style="rounded=0;whiteSpace=wrap;html=1;fillColor=#D5E8D4;fontSize=19;" parent="1" vertex="1">
          <mxGeometry x="2135" y="574" width="120" height="120" as="geometry" />
        </mxCell>
        <mxCell id="nofUytTRKHborZHY42P_-1" value="ConfigMaps" style="rounded=0;whiteSpace=wrap;html=1;fillColor=#D5E8D4;fontSize=19;" parent="1" vertex="1">
          <mxGeometry x="1995" y="706.5" width="120" height="120" as="geometry" />
        </mxCell>
        <mxCell id="nofUytTRKHborZHY42P_-2" value="Ingress routing" style="rounded=0;whiteSpace=wrap;html=1;fillColor=#D5E8D4;fontSize=19;" parent="1" vertex="1">
          <mxGeometry x="2135" y="706.5" width="120" height="120" as="geometry" />
        </mxCell>
        <mxCell id="nofUytTRKHborZHY42P_-3" value="Certificates" style="rounded=0;whiteSpace=wrap;html=1;fillColor=#D5E8D4;fontSize=19;" parent="1" vertex="1">
          <mxGeometry x="2270" y="437.5" width="120" height="120" as="geometry" />
        </mxCell>
        <mxCell id="nofUytTRKHborZHY42P_-5" value="" style="shape=flexArrow;endArrow=classic;html=1;rounded=0;entryX=1;entryY=0.5;entryDx=0;entryDy=0;exitX=0;exitY=0.5;exitDx=0;exitDy=0;endWidth=53.333333333333336;endSize=26.393333333333334;width=33.333333333333336;" parent="1" source="lOSNuE5mv28vJMR1kHwe-45" target="lOSNuE5mv28vJMR1kHwe-74" edge="1">
          <mxGeometry width="50" height="50" relative="1" as="geometry">
            <mxPoint x="2310" y="890" as="sourcePoint" />
            <mxPoint x="2360" y="840" as="targetPoint" />
            <Array as="points">
              <mxPoint x="2710" y="800" />
            </Array>
          </mxGeometry>
        </mxCell>
        <mxCell id="nofUytTRKHborZHY42P_-6" value="" style="shape=flexArrow;endArrow=classic;html=1;rounded=0;endWidth=53.333333333333336;endSize=26.393333333333334;width=33.333333333333336;" parent="1" edge="1">
          <mxGeometry width="50" height="50" relative="1" as="geometry">
            <mxPoint x="1880" y="800.22" as="sourcePoint" />
            <mxPoint x="1560" y="800.22" as="targetPoint" />
            <Array as="points">
              <mxPoint x="1750" y="800" />
            </Array>
          </mxGeometry>
        </mxCell>
        <mxCell id="nofUytTRKHborZHY42P_-7" value="&lt;font style=&quot;font-size: 30px;&quot;&gt;Build&lt;/font&gt;" style="text;html=1;align=center;verticalAlign=middle;whiteSpace=wrap;rounded=0;" parent="1" vertex="1">
          <mxGeometry x="2680" y="838" width="60" height="30" as="geometry" />
        </mxCell>
        <mxCell id="nofUytTRKHborZHY42P_-8" value="&lt;font style=&quot;font-size: 30px;&quot;&gt;Deploy&lt;/font&gt;" style="text;html=1;align=center;verticalAlign=middle;whiteSpace=wrap;rounded=0;" parent="1" vertex="1">
          <mxGeometry x="1690" y="848" width="60" height="30" as="geometry" />
        </mxCell>
        <mxCell id="nofUytTRKHborZHY42P_-9" value="Environment configuration" style="rounded=0;whiteSpace=wrap;html=1;fillColor=none;dashed=1;verticalAlign=top;fontSize=19;" parent="1" vertex="1">
          <mxGeometry x="1920" y="876.5" width="260" height="333.5" as="geometry" />
        </mxCell>
        <mxCell id="nofUytTRKHborZHY42P_-10" value="Prod" style="rounded=0;whiteSpace=wrap;html=1;fillColor=#e1d5e7;fontSize=19;strokeColor=#9673a6;" parent="1" vertex="1">
          <mxGeometry x="1953" y="1031.75" width="80" height="75" as="geometry" />
        </mxCell>
        <mxCell id="nofUytTRKHborZHY42P_-11" value="Test" style="rounded=0;whiteSpace=wrap;html=1;fillColor=#e1d5e7;fontSize=19;strokeColor=#9673a6;" parent="1" vertex="1">
          <mxGeometry x="2055" y="933.25" width="80" height="75" as="geometry" />
        </mxCell>
        <mxCell id="nofUytTRKHborZHY42P_-12" value="Dev" style="rounded=0;whiteSpace=wrap;html=1;fillColor=#e1d5e7;fontSize=19;strokeColor=#9673a6;" parent="1" vertex="1">
          <mxGeometry x="1953" y="934.25" width="80" height="75" as="geometry" />
        </mxCell>
        <mxCell id="nofUytTRKHborZHY42P_-13" value="&lt;font&gt;KDD1?&lt;/font&gt;" style="ellipse;whiteSpace=wrap;html=1;aspect=fixed;fontSize=23;fillColor=none;" parent="1" vertex="1">
          <mxGeometry x="2720" y="868" width="100" height="100" as="geometry" />
        </mxCell>
        <mxCell id="nofUytTRKHborZHY42P_-17" value="&lt;font&gt;KDD2?&lt;/font&gt;" style="ellipse;whiteSpace=wrap;html=1;aspect=fixed;fontSize=23;fillColor=none;" parent="1" vertex="1">
          <mxGeometry x="2380" y="572.5" width="100" height="100" as="geometry" />
        </mxCell>
        <mxCell id="nofUytTRKHborZHY42P_-18" value="&lt;font&gt;KDD3?&lt;/font&gt;" style="ellipse;whiteSpace=wrap;html=1;aspect=fixed;fontSize=23;fillColor=none;" parent="1" vertex="1">
          <mxGeometry x="2045" y="1082" width="100" height="100" as="geometry" />
        </mxCell>
        <mxCell id="nofUytTRKHborZHY42P_-19" value="&lt;font&gt;KDD4?&lt;/font&gt;" style="ellipse;whiteSpace=wrap;html=1;aspect=fixed;fontSize=23;fillColor=none;" parent="1" vertex="1">
          <mxGeometry x="1710" y="882" width="100" height="100" as="geometry" />
        </mxCell>
        <mxCell id="nofUytTRKHborZHY42P_-20" value="" style="shape=curlyBracket;whiteSpace=wrap;html=1;rounded=1;flipH=1;labelPosition=right;verticalLabelPosition=middle;align=left;verticalAlign=middle;rotation=90;size=0.5;" parent="1" vertex="1">
          <mxGeometry x="871" y="573" width="55" height="1548" as="geometry" />
        </mxCell>
        <mxCell id="nofUytTRKHborZHY42P_-21" value="Runtime" style="text;html=1;align=center;verticalAlign=middle;resizable=0;points=[];autosize=1;strokeColor=none;fillColor=none;fontSize=30;" parent="1" vertex="1">
          <mxGeometry x="828.5" y="1380" width="140" height="50" as="geometry" />
        </mxCell>
        <mxCell id="nofUytTRKHborZHY42P_-22" value="" style="shape=curlyBracket;whiteSpace=wrap;html=1;rounded=1;flipH=1;labelPosition=right;verticalLabelPosition=middle;align=left;verticalAlign=middle;rotation=90;size=0.5;" parent="1" vertex="1">
          <mxGeometry x="2679.5" y="347" width="55" height="2002" as="geometry" />
        </mxCell>
        <mxCell id="nofUytTRKHborZHY42P_-23" value="Pipeline" style="text;html=1;align=center;verticalAlign=middle;resizable=0;points=[];autosize=1;strokeColor=none;fillColor=none;fontSize=30;" parent="1" vertex="1">
          <mxGeometry x="2645" y="1371" width="130" height="50" as="geometry" />
        </mxCell>
      </root>
    </mxGraphModel>
  </diagram>
</mxfile>
